<svg width="7" height="12" viewBox="0 0 7 12" fill="none" xmlns="http://www.w3.org/2000/svg">
<path d="M0.234375 11.625C0.078125 11.4688 0 11.2837 0 11.07C0 10.8562 0.078125 10.6715 0.234375 10.5156L4.8125 5.9375L0.21875 1.34375C0.0729166 1.19792 0 1.01563 0 0.796875C0 0.578125 0.078125 0.390625 0.234375 0.234375C0.390625 0.078125 0.575625 0 0.789375 0C1.00313 0 1.18792 0.078125 1.34375 0.234375L6.59375 5.5C6.65625 5.5625 6.70063 5.63021 6.72688 5.70312C6.75313 5.77604 6.76604 5.85417 6.76563 5.9375C6.76563 6.02083 6.7525 6.09896 6.72625 6.17188C6.7 6.24479 6.65583 6.3125 6.59375 6.375L1.32812 11.6406C1.18229 11.7865 1.0025 11.8594 0.78875 11.8594C0.575 11.8594 0.390208 11.7813 0.234375 11.625Z" fill="#F5D119"/>
</svg>
