<svg width="18" height="18" viewBox="0 0 18 18" fill="none" xmlns="http://www.w3.org/2000/svg">
<rect y="3" width="15" height="13" rx="6.5" fill="white"/>
<path d="M8.75 0C3.91797 0 0 3.91797 0 8.75C0 13.582 3.91797 17.5 8.75 17.5C13.582 17.5 17.5 13.582 17.5 8.75C17.5 3.91797 13.582 0 8.75 0ZM9.46289 10.9141C8.60547 12.1211 6.88281 12.4727 5.53906 11.9551C4.19141 11.4414 3.23437 10.0176 3.34961 8.56641C3.37891 6.79102 5.01367 5.23438 6.78906 5.29492C7.64063 5.25586 8.44141 5.625 9.09375 6.14648C8.81445 6.46289 8.52734 6.76758 8.21875 7.05078C7.43555 6.50977 6.32031 6.35547 5.53711 6.98047C4.41602 7.75586 4.36523 9.58594 5.44336 10.4199C6.49219 11.3711 8.47461 10.8984 8.76562 9.44141C8.10937 9.43164 7.44922 9.44141 6.79297 9.41992C6.79102 9.02734 6.78906 8.63672 6.79102 8.24414C7.88867 8.24023 8.98828 8.23828 10.0879 8.24805C10.1523 9.17187 10.0293 10.1523 9.46289 10.9141ZM14.1992 9.22852C13.8711 9.23242 13.543 9.23438 13.2148 9.23633C13.2109 9.56445 13.209 9.89258 13.209 10.2207H12.2266C12.2227 9.89258 12.2227 9.56641 12.2207 9.23828C11.8926 9.23437 11.5645 9.23242 11.2363 9.22852V8.25C11.5645 8.24609 11.8926 8.24414 12.2207 8.24414C12.2227 7.91602 12.2266 7.58789 12.2285 7.25977H13.209L13.2148 8.24414C13.543 8.24805 13.8711 8.24805 14.1992 8.25V9.22852Z" fill="#EC3D22"/>
</svg>
