<svg width="18" height="18" viewBox="0 0 18 18" fill="none" xmlns="http://www.w3.org/2000/svg">
<rect width="16" height="16" rx="8" fill="white"/>
<path d="M8.75 0C3.91797 0 0 3.91797 0 8.75C0 13.582 3.91797 17.5 8.75 17.5C13.582 17.5 17.5 13.582 17.5 8.75C17.5 3.91797 13.582 0 8.75 0ZM12.9551 6.5957C12.9609 6.6875 12.9609 6.7832 12.9609 6.87695C12.9609 9.74414 10.7773 13.0469 6.78711 13.0469C5.55664 13.0469 4.41602 12.6895 3.45508 12.0742C3.63086 12.0938 3.79883 12.1016 3.97852 12.1016C4.99414 12.1016 5.92773 11.7578 6.67188 11.1758C5.71875 11.1562 4.91797 10.5312 4.64453 9.67188C4.97852 9.7207 5.2793 9.7207 5.62305 9.63281C5.13228 9.53311 4.69116 9.26657 4.37464 8.87848C4.05812 8.4904 3.88572 8.0047 3.88672 7.50391V7.47656C4.17383 7.63867 4.51172 7.73828 4.86523 7.75195C4.56805 7.5539 4.32433 7.28557 4.15569 6.97076C3.98704 6.65596 3.89868 6.3044 3.89844 5.94727C3.89844 5.54297 4.00391 5.17383 4.19336 4.85352C4.73809 5.52409 5.41783 6.07254 6.18841 6.46321C6.95898 6.85389 7.80314 7.07803 8.66602 7.12109C8.35938 5.64648 9.46094 4.45312 10.7852 4.45312C11.4102 4.45312 11.9727 4.71484 12.3691 5.13672C12.8594 5.04492 13.3281 4.86133 13.7461 4.61523C13.584 5.11719 13.2441 5.54102 12.793 5.80859C13.2305 5.76172 13.6523 5.64062 14.043 5.4707C13.748 5.9043 13.3789 6.28906 12.9551 6.5957Z" fill="#3EACF1"/>
</svg>
