<svg width="18" height="18" viewBox="0 0 18 18" fill="none" xmlns="http://www.w3.org/2000/svg">
<rect x="1" y="1" width="16" height="16" rx="8" fill="white"/>
<path d="M4.50977 10.14H5.23977V13.75H5.93977V10.14H6.66977V9.53002H4.50977V10.14ZM8.19977 13C8.07977 13.14 7.66977 13.42 7.66977 13.02V10.63H7.04977V13.24C7.04977 14.03 7.83977 13.82 8.20977 13.41V13.75H8.82977V10.63H8.20977V13H8.19977ZM10.5098 10.61C10.1498 10.61 9.91977 10.88 9.91977 10.88V9.52002H9.28977V13.75H9.91977V13.51C9.91977 13.51 10.1298 13.79 10.5098 13.79C10.8398 13.79 11.0898 13.5 11.0898 13.1V11.37C11.0898 10.9 10.8698 10.61 10.5098 10.61ZM10.4398 13.02C10.4398 13.25 10.2798 13.36 10.0698 13.27C10.0131 13.2435 9.9621 13.2061 9.91977 13.16V11.22C9.95977 11.18 10.0098 11.15 10.0498 11.12C10.2698 11.01 10.4398 11.18 10.4398 11.41V13.02ZM12.7498 12.86C12.7498 13.1 12.6198 13.26 12.4698 13.27C12.3098 13.28 12.1498 13.15 12.1498 12.86V12.27H13.3398V11.47C13.3428 11.3482 13.3214 11.227 13.2767 11.1136C13.2321 11.0003 13.1651 10.897 13.0798 10.81C12.9078 10.6531 12.6826 10.5673 12.4498 10.57C12.2298 10.57 11.9998 10.64 11.8198 10.78C11.6298 10.93 11.5098 11.16 11.5098 11.47V12.87C11.5098 13.15 11.5998 13.37 11.7398 13.53C11.9098 13.71 12.1398 13.81 12.3798 13.82C12.6698 13.83 12.9798 13.71 13.1598 13.46C13.2698 13.31 13.3398 13.11 13.3398 12.87V12.71H12.7498V12.86ZM12.1498 11.47C12.1498 11.3 12.2498 11.1 12.4398 11.1C12.6298 11.1 12.7498 11.28 12.7498 11.47V11.79H12.1498V11.47Z" fill="#B80002"/>
<path d="M9 1.39008e-08C7.81804 6.56572e-05 6.64766 0.232935 5.5557 0.685313C4.46373 1.13769 3.47156 1.80072 2.63583 2.63654C1.8001 3.47236 1.13719 4.4646 0.684931 5.55662C0.232674 6.64864 -6.5647e-05 7.81904 1.38894e-08 9.001C6.56748e-05 10.183 0.232936 11.3533 0.685314 12.4453C1.13769 13.5373 1.80072 14.5294 2.63654 15.3652C3.47236 16.2009 4.4646 16.8638 5.55662 17.3161C6.64864 17.7683 7.81904 18.0011 9.001 18.001C11.3881 18.0009 13.6773 17.0525 15.3652 15.3645C17.053 13.6764 18.0011 11.3871 18.001 9C18.0009 6.61292 17.0525 4.32366 15.3645 2.63583C13.6764 0.948004 11.3871 -0.000132559 9 1.39008e-08ZM10.58 3.37H11.38V6.05C11.38 6.22 11.46 6.22 11.49 6.22C11.61 6.22 11.79 6.09 11.88 6V3.36H12.68V6.9H11.88V6.59C11.77 6.69 11.66 6.77 11.55 6.83C11.4 6.91 11.26 6.94 11.12 6.94C11.0434 6.94367 10.9668 6.93033 10.896 6.90094C10.8251 6.87155 10.7616 6.82683 10.71 6.77C10.62 6.66 10.58 6.49 10.58 6.28V3.37ZM8.03 4.3C8.03 3.75 8.48 3.3 9.03 3.3C9.58 3.3 10.03 3.75 10.03 4.3V6C10.03 6.55 9.58 7 9.03 7C8.48 7 8.03 6.55 8.03 6V4.3ZM5.95 2.15L6.43 3.91L6.92 2.15H7.83L6.89 4.93V6.9H6V4.93L5.04 2.15H5.95ZM13.85 14.69C13.34 15.19 9.02 15.2 9.02 15.2C9.02 15.2 4.71 15.19 4.19 14.69C3.68 14.19 3.68 11.7 3.68 11.68C3.68 11.67 3.68 9.18 4.19 8.67C4.7 8.17 9.02 8.16 9.02 8.16C9.02 8.16 13.33 8.17 13.85 8.67C14.36 9.17 14.37 11.66 14.37 11.68C14.37 11.68 14.37 14.18 13.85 14.69Z" fill="#B80002"/>
<path d="M9.01002 6.3502C9.18002 6.3502 9.26002 6.2502 9.27002 6.0902V4.1902C9.27002 4.0602 9.14002 3.9502 9.02002 3.9502C8.90002 3.9502 8.77002 4.0502 8.77002 4.1902V6.0902C8.77002 6.2402 8.84002 6.3402 9.01002 6.3502Z" fill="#B80002"/>
</svg>
